<svg xmlns="http://www.w3.org/2000/svg" viewBox="0 0 280 56" width="280" height="56">
  <!-- Each letter is on a 5x7 pixel grid, pixel size = 6px, spacing = 4px -->
  
  <!-- n (at x=8) -->
  <g fill="#000">
    <rect x="8" y="14" width="6" height="6"/>
    <rect x="8" y="20" width="6" height="6"/>
    <rect x="8" y="26" width="6" height="6"/>
    <rect x="8" y="32" width="6" height="6"/>
    <rect x="8" y="38" width="6" height="6"/>
    <rect x="14" y="14" width="6" height="6"/>
    <rect x="20" y="14" width="6" height="6"/>
    <rect x="26" y="14" width="6" height="6"/>
    <rect x="26" y="20" width="6" height="6"/>
    <rect x="26" y="26" width="6" height="6"/>
    <rect x="26" y="32" width="6" height="6"/>
    <rect x="26" y="38" width="6" height="6"/>
  </g>
  
  <!-- o (at x=46) -->
  <g fill="#000">
    <rect x="52" y="14" width="6" height="6"/>
    <rect x="58" y="14" width="6" height="6"/>
    <rect x="46" y="20" width="6" height="6"/>
    <rect x="64" y="20" width="6" height="6"/>
    <rect x="46" y="26" width="6" height="6"/>
    <rect x="64" y="26" width="6" height="6"/>
    <rect x="46" y="32" width="6" height="6"/>
    <rect x="64" y="32" width="6" height="6"/>
    <rect x="52" y="38" width="6" height="6"/>
    <rect x="58" y="38" width="6" height="6"/>
  </g>
  
  <!-- m (at x=84) -->
  <g fill="#000">
    <rect x="84" y="14" width="6" height="6"/>
    <rect x="84" y="20" width="6" height="6"/>
    <rect x="84" y="26" width="6" height="6"/>
    <rect x="84" y="32" width="6" height="6"/>
    <rect x="84" y="38" width="6" height="6"/>
    <rect x="90" y="14" width="6" height="6"/>
    <rect x="96" y="20" width="6" height="6"/>
    <rect x="96" y="26" width="6" height="6"/>
    <rect x="96" y="32" width="6" height="6"/>
    <rect x="96" y="38" width="6" height="6"/>
    <rect x="102" y="14" width="6" height="6"/>
    <rect x="108" y="14" width="6" height="6"/>
    <rect x="108" y="20" width="6" height="6"/>
    <rect x="108" y="26" width="6" height="6"/>
    <rect x="108" y="32" width="6" height="6"/>
    <rect x="108" y="38" width="6" height="6"/>
  </g>
  
  <!-- o (at x=128) -->
  <g fill="#000">
    <rect x="134" y="14" width="6" height="6"/>
    <rect x="140" y="14" width="6" height="6"/>
    <rect x="128" y="20" width="6" height="6"/>
    <rect x="146" y="20" width="6" height="6"/>
    <rect x="128" y="26" width="6" height="6"/>
    <rect x="146" y="26" width="6" height="6"/>
    <rect x="128" y="32" width="6" height="6"/>
    <rect x="146" y="32" width="6" height="6"/>
    <rect x="134" y="38" width="6" height="6"/>
    <rect x="140" y="38" width="6" height="6"/>
  </g>
  
  <!-- u (at x=166) -->
  <g fill="#000">
    <rect x="166" y="14" width="6" height="6"/>
    <rect x="166" y="20" width="6" height="6"/>
    <rect x="166" y="26" width="6" height="6"/>
    <rect x="166" y="32" width="6" height="6"/>
    <rect x="184" y="14" width="6" height="6"/>
    <rect x="184" y="20" width="6" height="6"/>
    <rect x="184" y="26" width="6" height="6"/>
    <rect x="184" y="32" width="6" height="6"/>
    <rect x="172" y="38" width="6" height="6"/>
    <rect x="178" y="38" width="6" height="6"/>
    <rect x="184" y="38" width="6" height="6"/>
  </g>
  
  <!-- s (at x=204) -->
  <g fill="#000">
    <rect x="210" y="14" width="6" height="6"/>
    <rect x="216" y="14" width="6" height="6"/>
    <rect x="222" y="14" width="6" height="6"/>
    <rect x="204" y="20" width="6" height="6"/>
    <rect x="210" y="26" width="6" height="6"/>
    <rect x="216" y="26" width="6" height="6"/>
    <rect x="222" y="32" width="6" height="6"/>
    <rect x="204" y="38" width="6" height="6"/>
    <rect x="210" y="38" width="6" height="6"/>
    <rect x="216" y="38" width="6" height="6"/>
  </g>
  
  <!-- e (at x=242) -->
  <g fill="#000">
    <rect x="248" y="14" width="6" height="6"/>
    <rect x="254" y="14" width="6" height="6"/>
    <rect x="260" y="14" width="6" height="6"/>
    <rect x="242" y="20" width="6" height="6"/>
    <rect x="248" y="26" width="6" height="6"/>
    <rect x="254" y="26" width="6" height="6"/>
    <rect x="242" y="32" width="6" height="6"/>
    <rect x="248" y="38" width="6" height="6"/>
    <rect x="254" y="38" width="6" height="6"/>
    <rect x="260" y="38" width="6" height="6"/>
  </g>
</svg>
